HIERARCHY
ROOT Hips
{
	OFFSET 0.000000 0.000000 0.000000
	CHANNELS 6 Xposition Yposition Zposition Zrotation Yrotation Xrotation 
	JOINT LowerBack
	{
		OFFSET 0.000000 0.000000 0.000000
		CHANNELS 3 Zrotation Yrotation Xrotation
		JOINT Spine
		{
			OFFSET 0.028270 2.035590 -0.193380
			CHANNELS 3 Zrotation Yrotation Xrotation
			JOINT Spine1
			{
				OFFSET 0.056720 2.048850 -0.042750
				CHANNELS 3 Zrotation Yrotation Xrotation
				JOINT Neck
				{
					OFFSET 0.000000 0.000000 0.000000
					CHANNELS 3 Zrotation Yrotation Xrotation
					JOINT Neck1
					{
						OFFSET -0.054170 1.746240 0.172020
						CHANNELS 3 Zrotation Yrotation Xrotation
						JOINT Head
						{
							OFFSET 0.104070 1.761360 -0.123970
							CHANNELS 3 Zrotation Yrotation Xrotation
							End Site
							{
								OFFSET 0.000000 0.000000 0.000000
							}
						}
					}
				}
				JOINT LeftShoulder
				{
					OFFSET 0.000000 0.000000 0.000000
					CHANNELS 3 Zrotation Yrotation Xrotation
					JOINT LeftArm
					{
						OFFSET 3.362410 1.200890 -0.311210
						CHANNELS 3 Zrotation Yrotation Xrotation
						JOINT LeftForeArm
						{
							OFFSET 4.983000 -0.000000 -0.000000
							CHANNELS 3 Zrotation Yrotation Xrotation
							JOINT LeftHand
							{
								OFFSET 3.483560 -0.000000 -0.000000
								CHANNELS 3 Zrotation Yrotation Xrotation
								JOINT LeftFingerBase
								{
									OFFSET 0.000000 0.000000 0.000000
									CHANNELS 3 Zrotation Yrotation Xrotation
									JOINT LeftHandIndex1
									{
										OFFSET 0.715260 -0.000000 -0.000000
										CHANNELS 3 Zrotation Yrotation Xrotation
										End Site
										{
											OFFSET 0.000000 0.000000 0.000000
										}
									}
								}
								JOINT LThumb
								{
									OFFSET 0.000000 0.000000 0.000000
									CHANNELS 3 Zrotation Yrotation Xrotation
									End Site
									{
										OFFSET 0.000000 0.000000 0.000000
									}
								}
							}
						}
					}
				}
				JOINT RightShoulder
				{
					OFFSET 0.000000 0.000000 0.000000
					CHANNELS 3 Zrotation Yrotation Xrotation
					JOINT RightArm
					{
						OFFSET -3.136600 1.374050 -0.404650
						CHANNELS 3 Zrotation Yrotation Xrotation
						JOINT RightForeArm
						{
							OFFSET -5.241900 -0.000000 -0.000000
							CHANNELS 3 Zrotation Yrotation Xrotation
							JOINT RightHand
							{
								OFFSET -3.444170 -0.000000 -0.000000
								CHANNELS 3 Zrotation Yrotation Xrotation
								JOINT RightFingerBase
								{
									OFFSET 0.000000 0.000000 0.000000
									CHANNELS 3 Zrotation Yrotation Xrotation
									JOINT RightHandIndex1
									{
										OFFSET -0.622530 -0.000000 -0.000000
										CHANNELS 3 Zrotation Yrotation Xrotation
										End Site
										{
											OFFSET 0.000000 0.000000 0.000000
										}
									}
								}
								JOINT RThumb
								{
									OFFSET 0.000000 0.000000 0.000000
									CHANNELS 3 Zrotation Yrotation Xrotation
									End Site
									{
										OFFSET 0.000000 0.000000 0.000000
									}
								}
							}
						}
					}
				}
			}
		}
	}
}
}
MOTION
Frames: 14
Frame Time: 0.008333
-3.565856 16.765016 1.232313 -35.114978 83.993744 -15.198009 -1.458991 0.351390 -4.648314 -1.130571 0.275681 -3.658364 -6.061562 0.286327 1.106969 11.360943 -7.349529 -7.164767 -2.431624 -0.189357 0.113425 0.000000 0.000000 0.000000 1.599640 15.551496 2.207991 -54.842845 14.346874 -3.123615 -0.620490 -78.970655 -0.018957 7.691213 1.708164 0.111130 -0.202045 0.126782 0.000000 0.000000 0.000000 0.000000 0.000000 0.000000 0.000000 10.039519 -0.131587 -0.442407 55.037025 30.879607 19.311400 179.579637 82.872767 -179.990379 0.944737 5.390834 0.050583 -0.012032 -0.536078 -0.000000 0.000000 0.000000 0.000000 0.000000 0.000000 0.000000 
-3.387896 16.709221 1.229383 -34.448365 83.796208 -14.697012 -1.823947 0.339532 -4.700395 -1.212370 0.288414 -3.656692 -6.112835 0.299493 1.160789 11.705459 -7.423131 -7.221756 -2.405001 -0.186604 0.097037 0.000000 0.000000 0.000000 1.545398 15.888474 2.210238 -54.927052 14.422988 -3.605879 -0.628987 -78.856610 -0.018885 7.735783 1.736913 0.113820 -0.202078 0.124622 0.000000 0.000000 0.000000 0.000000 0.000000 0.000000 0.000000 10.208647 -0.165187 -0.451569 54.938614 30.984789 19.093410 179.539508 82.216879 -179.987464 1.352705 5.364798 0.071835 -0.021716 -0.540931 -0.000000 0.000000 0.000000 0.000000 0.000000 0.000000 0.000000 
-3.214892 16.659656 1.225508 -32.429114 83.580598 -12.893070 -2.276361 0.341030 -4.676012 -1.309928 0.324061 -3.644536 -6.161867 0.334780 1.198371 11.987788 -7.478335 -7.276169 -2.380227 -0.183849 0.079831 0.000000 0.000000 0.000000 1.408320 16.236791 2.219261 -55.008065 14.310745 -4.057883 -0.649398 -78.581827 -0.018798 7.784170 1.769625 0.117005 -0.202096 0.122122 0.000000 0.000000 0.000000 0.000000 0.000000 0.000000 0.000000 10.323251 -0.177914 -0.472589 55.000806 31.028312 18.872602 179.506853 81.682478 -179.984501 1.767338 5.304376 0.092881 -0.032038 -0.544377 -0.000000 0.000000 0.000000 0.000000 0.000000 0.000000 0.000000 
-3.046858 16.617283 1.219903 -29.518859 83.348674 -10.236769 -2.779687 0.353033 -4.584603 -1.415523 0.376511 -3.624075 -6.207595 0.386355 1.217642 12.194725 -7.513269 -7.323286 -2.358651 -0.181298 0.063476 0.000000 0.000000 0.000000 1.185298 16.574829 2.233053 -55.102019 14.031858 -4.487132 -0.681318 -78.150786 -0.018732 7.853001 1.808654 0.120885 -0.202169 0.119237 0.000000 0.000000 0.000000 0.000000 0.000000 0.000000 0.000000 10.375815 -0.171726 -0.506743 55.217401 31.003685 18.660483 179.482612 81.273178 -179.981601 2.174990 5.205759 0.112324 -0.042654 -0.546126 -0.000000 0.000000 0.000000 0.000000 0.000000 0.000000 0.000000 
-2.883553 16.582686 1.211807 -26.183719 83.105212 -7.180393 -3.294500 0.371484 -4.439571 -1.521313 0.438146 -3.597549 -6.249144 0.447021 1.219486 12.318388 -7.526106 -7.359404 -2.341579 -0.179148 0.049400 0.000000 0.000000 0.000000 0.884704 16.888327 2.249132 -55.229697 13.604778 -4.895348 -0.724260 -77.566855 -0.018723 7.956635 1.856448 0.126060 -0.202343 0.116012 0.000000 0.000000 0.000000 0.000000 0.000000 0.000000 0.000000 10.364888 -0.149495 -0.555344 55.571957 30.907150 18.465858 179.467665 80.989266 -179.978862 2.564533 5.069526 0.129264 -0.053300 -0.545996 -0.000000 0.000000 0.000000 0.000000 0.000000 0.000000 0.000000 
-2.724674 16.556067 1.201211 -22.577297 82.860792 -3.871497 -3.815909 0.390937 -4.250333 -1.626375 0.502803 -3.566046 -6.285664 0.510818 1.206659 12.361286 -7.517220 -7.381627 -2.330471 -0.177579 0.038597 0.000000 0.000000 0.000000 0.533013 17.166988 2.265291 -55.413721 13.046821 -5.278689 -0.777492 -76.833561 -0.018810 8.105219 1.915728 0.132830 -0.202570 0.112567 0.000000 0.000000 0.000000 0.000000 0.000000 0.000000 0.000000 10.303303 -0.116718 -0.617342 56.038768 30.745415 18.295881 179.462909 80.830312 -179.976383 2.927024 4.899377 0.143002 -0.063725 -0.543983 -0.000000 0.000000 0.000000 0.000000 0.000000 0.000000 0.000000 
-2.569540 16.537356 1.186745 -19.397964 82.605034 -0.993050 -4.255255 0.415491 -4.033120 -1.714195 0.566971 -3.532443 -6.317408 0.574836 1.180207 12.317886 -7.482455 -7.385549 -2.326612 -0.176812 0.032938 0.000000 0.000000 0.000000 0.125501 17.398272 2.277241 -55.666568 12.400216 -5.636820 -0.838460 -75.981685 -0.019003 8.303947 1.992534 0.141998 -0.202757 0.108841 0.000000 0.000000 0.000000 0.000000 0.000000 0.000000 0.000000 10.190315 -0.069596 -0.691001 56.575797 30.521047 18.153422 179.467850 80.791372 -179.974198 3.259073 4.702443 0.153338 -0.073818 -0.540057 -0.000000 0.000000 0.000000 0.000000 0.000000 0.000000 0.000000 
-2.417594 16.526125 1.168333 -16.639313 82.342294 1.460845 -4.614569 0.444631 -3.794495 -1.785231 0.630055 -3.496668 -6.343396 0.638388 1.145925 12.199207 -7.425070 -7.371205 -2.330718 -0.176909 0.032510 0.000000 0.000000 0.000000 -0.308692 17.587530 2.282231 -56.005601 11.677185 -5.955853 -0.905592 -75.023090 -0.019303 8.549972 2.089326 0.153663 -0.202753 0.104992 0.000000 0.000000 0.000000 0.000000 0.000000 0.000000 0.000000 10.045800 -0.013475 -0.772803 57.142062 30.253671 18.041294 179.482271 80.868680 -179.972335 3.559010 4.488400 0.160472 -0.083450 -0.534436 -0.000000 0.000000 0.000000 0.000000 0.000000 0.000000 0.000000 
-2.268092 16.521799 1.145160 -14.554176 82.068002 3.243548 -4.854223 0.482304 -3.545878 -1.831969 0.692565 -3.460552 -6.363311 0.701884 1.105834 12.010590 -7.343389 -7.336355 -2.343302 -0.177970 0.038297 0.000000 0.000000 0.000000 -0.766818 17.730734 2.277338 -56.433803 10.915685 -6.227126 -0.975718 -73.995518 -0.019695 8.834067 2.210487 0.168526 -0.202385 0.101001 0.000000 0.000000 0.000000 0.000000 0.000000 0.000000 0.000000 9.878418 0.054620 -0.858387 57.692789 29.954109 17.958935 179.504601 81.054276 -179.970768 3.831432 4.267853 0.164904 -0.092619 -0.527316 -0.000000 0.000000 0.000000 0.000000 0.000000 0.000000 0.000000 
-2.120411 16.523666 1.117080 -13.102766 81.789701 4.397292 -4.976543 0.527059 -3.295598 -1.854686 0.753142 -3.424653 -6.376488 0.763664 1.063976 11.765319 -7.240720 -7.281799 -2.364358 -0.179982 0.050135 0.000000 0.000000 0.000000 -1.234058 17.830398 2.261264 -56.950678 10.137660 -6.434199 -1.046342 -72.929089 -0.020147 9.138787 2.357610 0.186386 -0.201498 0.096963 0.000000 0.000000 0.000000 0.000000 0.000000 0.000000 0.000000 9.704853 0.130930 -0.943008 58.189741 29.638701 17.905931 179.533082 81.339501 -179.969451 4.082942 4.050740 0.167535 -0.101317 -0.518958 -0.000000 0.000000 0.000000 0.000000 0.000000 0.000000 0.000000 
-1.974001 16.531037 1.084298 -12.169351 81.520888 5.040601 -4.997680 0.574277 -3.050306 -1.856282 0.808443 -3.388647 -6.382428 0.820173 1.025862 11.480152 -7.123682 -7.211208 -2.393312 -0.182830 0.066876 0.000000 0.000000 0.000000 -1.692893 17.896083 2.233820 -57.551281 9.348237 -6.554285 -1.115787 -71.847071 -0.020634 9.441315 2.529076 0.207145 -0.200010 0.093062 0.000000 0.000000 0.000000 0.000000 0.000000 0.000000 0.000000 9.543222 0.207595 -1.022530 58.602065 29.325258 17.881545 179.565795 81.714294 -179.968326 4.321226 3.845899 0.168965 -0.109550 -0.509625 -0.000000 0.000000 0.000000 0.000000 0.000000 0.000000 0.000000 
-1.828368 16.543242 1.046882 -11.749532 81.273729 5.186636 -4.917144 0.620475 -2.820054 -1.836721 0.854863 -3.353831 -6.381777 0.867611 0.993080 11.168204 -6.996807 -7.126421 -2.429467 -0.186433 0.088033 0.000000 0.000000 0.000000 -2.140009 17.924925 2.195518 -58.218824 8.569444 -6.569989 -1.181923 -70.786443 -0.021111 9.713211 2.723568 0.230101 -0.197859 0.089382 0.000000 0.000000 0.000000 0.000000 0.000000 0.000000 0.000000 9.403756 0.280479 -1.092842 58.908121 29.020289 17.882873 179.600454 82.166201 -179.967325 4.555552 3.658548 0.170095 -0.117343 -0.499501 -0.000000 0.000000 0.000000 0.000000 0.000000 0.000000 0.000000 
-1.683197 16.559743 1.005368 -11.761264 81.064196 4.925391 -4.749357 0.660314 -2.611942 -1.798911 0.888128 -3.320820 -6.375671 0.901586 0.967358 10.844857 -6.867382 -7.031037 -2.471880 -0.190652 0.112490 0.000000 0.000000 0.000000 -2.567684 17.916035 2.147898 -58.933667 7.810113 -6.461777 -1.243604 -69.775395 -0.021542 9.924367 2.936739 0.254058 -0.195052 0.086082 0.000000 0.000000 0.000000 0.000000 0.000000 0.000000 0.000000 9.297995 0.342229 -1.150471 59.097347 28.729497 17.906491 179.635153 82.681954 -179.966399 4.792545 3.491403 0.171226 -0.124669 -0.488771 -0.000000 0.000000 0.000000 0.000000 0.000000 0.000000 0.000000 
-1.538379 16.580167 0.960479 -12.139121 80.907522 4.329407 -4.509902 0.688884 -2.430602 -1.746062 0.904466 -3.289740 -6.365756 0.918327 0.950570 10.524307 -6.743844 -6.930067 -2.519237 -0.195300 0.138716 0.000000 0.000000 0.000000 -2.968499 17.873860 2.092835 -59.675070 7.064983 -6.208259 -1.300749 -68.832131 -0.021904 10.044606 3.161586 0.277317 -0.191664 0.083366 0.000000 0.000000 0.000000 0.000000 0.000000 0.000000 0.000000 9.233984 0.384707 -1.193605 59.169733 28.454726 17.947492 179.668528 83.248278 -179.965522 5.035460 3.343929 0.172659 -0.131473 -0.477568 -0.000000 0.000000 0.000000 0.000000 0.000000 0.000000 0.000000 
